# xmcd
#
# Track frame offsets:
#	150
#	15204
#	31353
#	50705
#	73420
#	90597
#	108671
#	125693
#	150768
#	167211
#	181453
#	200096
#	214642
#
# Disc length: 3122 seconds
#
# Revision: 0
# Processed by: cddbd v1.5.1PL0 Copyright (c) Steve Scherf et al.
# Submitted via: dBpowerAMP V4.0
#
DISCID=b40c300d
DTITLE=Kimball Brisco Johnson - Tear or Two
DYEAR=1900
DGENRE=Country
TTITLE0=Send me to Hell When I Die
TTITLE1=Diamonds and Pearls
TTITLE2=Tear or Two
TTITLE3=He Was Tough And Lonely
TTITLE4=Down The Road Walks a Stranger
TTITLE5=The Gypsy
TTITLE6=Blood on My Blood
TTITLE7=Cecil always Rings Home on Thursdays
TTITLE8=Beautiful Eyes Tonight
TTITLE9=Tried to Write a Letter
TTITLE10=Some Men Climb Mountains
TTITLE11=Colour Ruby Red
TTITLE12=Walking in the Moonlight
EXTD=Kidnappers Radio 1431
EXTT0=
EXTT1=
EXTT2=
EXTT3=
EXTT4=
EXTT5=
EXTT6=
EXTT7=
EXTT8=
EXTT9=
EXTT10=
EXTT11=
EXTT12=
PLAYORDER=
